# xmcd CD database file
#
# Track frame offsets:
#	150
#	15554
#	38892
#	60194
#	79551
#	102793
#	127004
#	146347
#	166207
#	183128
#	203032
#	215775
#	238137
#	250685
#	262277
#
# Disc length: 3696 seconds
#
# Revision: 0
# Processed by: cddbd v1.5.2PL0 Copyright (c) Steve Scherf et al.
# Submitted via: jetAudio 7
#
DISCID=c90e6e0f
DTITLE=음악가 없음 - 앨범 없음
DYEAR=1900
DGENRE=장르 없음
TTITLE0=爸爸的草鞋
TTITLE1=故鄕的雲
TTITLE2=偷心
TTITLE3=忘記他
TTITLE4=倫敦德裏小調
TTITLE5=感情
TTITLE6=变
TTITLE7=山鹰之歌
TTITLE8=绣荷包
TTITLE9=射雕英雄傳
TTITLE10=采花
TTITLE11=慢慢地陪着(著)你走
TTITLE12=猜調
TTITLE13=放馬山歌
TTITLE14=上茶山
EXTD=
EXTT0=
EXTT1=
EXTT2=
EXTT3=
EXTT4=
EXTT5=
EXTT6=
EXTT7=
EXTT8=
EXTT9=
EXTT10=
EXTT11=
EXTT12=
EXTT13=
EXTT14=
PLAYORDER=
